<?xml version="1.0" encoding="UTF-8" standalone="no"?>
<!DOCTYPE svg PUBLIC "-//W3C//DTD SVG 1.1//EN" "http://www.w3.org/Graphics/SVG/1.1/DTD/svg11.dtd">
<svg width="100%" height="100%" viewBox="0 0 106 39" version="1.1" >
    <g transform="matrix(1,0,0,1,-1688.54,-439.526)">
        <g transform="matrix(1,0,0,1,514.846,98.9362)">
            <path d="M1242.98,353.987C1245.45,346.964 1252.14,341.923 1260,341.923C1269.95,341.923 1278.03,350.003 1278.03,359.954C1278.03,369.905 1269.95,377.984 1260,377.984C1252.15,377.984 1245.46,372.951 1242.99,365.936C1240.52,372.959 1233.83,378 1225.97,378C1218.64,378 1212.33,373.62 1209.51,367.338C1206.69,373.611 1200.38,377.984 1193.06,377.984C1183.11,377.984 1175.03,369.905 1175.03,359.954C1175.03,350.003 1183.11,341.923 1193.06,341.923C1200.39,341.923 1206.7,346.303 1209.52,352.585C1212.34,346.312 1218.65,341.939 1225.97,341.939C1233.82,341.939 1240.51,346.973 1242.98,353.987Z" style="fill:white;fill-rule:nonzero;stroke:black;stroke-width:0.15px;"/>
            <path d="M1242.98,350.717C1239.7,344.695 1233.31,340.606 1225.97,340.606C1219.03,340.606 1212.94,344.264 1209.52,349.755C1206.1,344.255 1200.01,340.59 1193.06,340.59C1182.37,340.59 1173.7,349.267 1173.7,359.954C1173.7,370.641 1182.37,379.317 1193.06,379.317C1200,379.317 1206.09,375.659 1209.51,370.168C1212.93,375.668 1219.02,379.333 1225.97,379.333C1233.31,379.333 1239.71,375.237 1242.99,369.206C1246.27,375.228 1252.66,379.317 1260,379.317C1270.69,379.317 1279.36,370.641 1279.36,359.954C1279.36,349.267 1270.69,340.59 1260,340.59C1252.66,340.59 1246.26,344.687 1242.98,350.717ZM1242.98,353.987C1245.45,346.964 1252.14,341.923 1260,341.923C1269.95,341.923 1278.03,350.003 1278.03,359.954C1278.03,369.905 1269.95,377.984 1260,377.984C1252.15,377.984 1245.46,372.951 1242.99,365.936C1240.52,372.959 1233.83,378 1225.97,378C1218.64,378 1212.33,373.62 1209.51,367.338C1206.69,373.611 1200.38,377.984 1193.06,377.984C1183.11,377.984 1175.03,369.905 1175.03,359.954C1175.03,350.003 1183.11,341.923 1193.06,341.923C1200.39,341.923 1206.7,346.303 1209.52,352.585C1212.34,346.312 1218.65,341.939 1225.97,341.939C1233.82,341.939 1240.51,346.973 1242.98,353.987Z" style="fill:none;fill-rule:nonzero;"/>
        </g>
        <g transform="matrix(-0.343533,-0.881465,0.858867,-0.334726,1772.82,1702.87)">
            <path d="M1236.41,438.123C1226.55,461.789 1243.99,458.714 1236.74,477.243" style="fill:none;fill-rule:nonzero;stroke:black;stroke-width:0.16px;stroke-linejoin:miter;stroke-miterlimit:4;"/>
        </g>
        <g transform="matrix(-0.343533,-0.881465,0.858867,-0.334726,1806.32,1701.37)">
            <path d="M1236.37,438.141C1226.51,461.807 1243.6,458.594 1236.35,477.123" style="fill:none;fill-rule:nonzero;stroke:black;stroke-width:0.16px;stroke-linejoin:miter;stroke-miterlimit:4;"/>
        </g>
        <g transform="matrix(-0.343533,-0.881465,0.858867,-0.334726,1739.32,1701.84)">
            <path d="M1235.42,438.4C1225.56,462.066 1244.44,458.906 1237.19,477.435" style="fill:none;fill-rule:nonzero;stroke:black;stroke-width:0.16px;stroke-linejoin:miter;stroke-miterlimit:4;"/>
        </g>
    </g>
</svg>
