<?xml version="1.0" encoding="UTF-8" standalone="no"?>
<!DOCTYPE svg PUBLIC "-//W3C//DTD SVG 1.1//EN" "http://www.w3.org/Graphics/SVG/1.1/DTD/svg11.dtd">
<svg width="100%" height="100%" viewBox="0 0 874 201" version="1.1">
    <g transform="matrix(1,0,0,1,-573.118,-149.5)">
        <g transform="matrix(0.367196,0,0,0.367196,573.434,130.938)">
            <path d="M229.254,588.287L229.254,413.847C229.254,391.341 234.246,374.02 244.231,361.884C254.215,349.748 268.58,343.68 287.327,343.68C301.183,343.68 313.001,348.314 322.782,357.581C328.487,363.318 332.562,371.482 335.007,382.073C337.453,392.664 338.675,406.565 338.675,423.776L338.675,592.369C324.669,594.248 310.345,595.221 295.776,595.221C272.911,595.221 250.651,592.825 229.254,588.287ZM229.254,58.848C250.651,54.31 272.911,51.914 295.776,51.914C458.743,51.914 591.051,173.638 591.051,323.567C591.051,421.771 534.288,507.874 449.319,555.599L449.319,379.425C449.319,339.267 439.233,307.383 419.06,283.774C398.887,260.164 369.036,248.36 329.506,248.36C308.722,248.36 290.587,251.78 275.101,258.62C259.615,265.46 244.333,278.809 229.254,298.668L229.254,58.848ZM118.61,106.287L118.61,540.848C46.916,491.279 0.5,412.371 0.5,323.567C0.5,234.764 46.916,155.856 118.61,106.287Z" style="fill:rgb(70,78,85);stroke:rgb(70,78,85);stroke-width:2.72px;"/>
        </g>
        <g transform="matrix(0.367196,0,0,0.367196,635.103,130.938)">
            <path d="M1031.65,594.856C1026.55,595.098 1021.41,595.221 1016.25,595.221C987.387,595.221 959.487,591.403 933.111,584.286L933.111,445.34L1031.65,594.856ZM933.111,62.848C959.487,55.731 987.387,51.914 1016.25,51.914C1179.21,51.914 1311.52,173.638 1311.52,323.567C1311.52,432.596 1241.56,526.709 1140.73,569.935L1022.96,397.292L1150.53,227.331L1027.43,227.331L933.111,360.001L933.111,62.848ZM843.263,103.448L843.263,543.686C769.193,494.313 720.972,414.08 720.972,323.567C720.972,233.055 769.193,152.822 843.263,103.448Z" style="fill:rgb(70,78,85);stroke:rgb(70,78,85);stroke-width:2.72px;"/>
        </g>
        <g transform="matrix(0.367196,0,0,0.367196,691.568,130.938)">
            <path d="M1580.67,539.094C1510.39,489.412 1465.07,411.321 1465.07,323.567C1465.07,173.638 1597.38,51.914 1760.34,51.914C1923.31,51.914 2055.62,173.638 2055.62,323.567C2055.62,473.497 1923.31,595.221 1760.34,595.221C1733.05,595.221 1706.61,591.806 1681.53,585.419L1681.53,489.685C1705.3,516.085 1735.02,529.285 1770.68,529.285C1791.11,529.285 1810.06,525.085 1827.52,516.685C1844.98,508.285 1860.11,496.685 1872.93,481.885C1885.75,467.085 1895.78,449.885 1903.02,430.285C1910.26,410.685 1913.89,389.485 1913.89,366.685C1913.89,343.885 1910.26,322.485 1903.02,302.485C1895.78,282.485 1885.65,265.085 1872.65,250.285C1859.65,235.485 1844.33,223.785 1826.68,215.185C1809.04,206.585 1790,202.285 1769.57,202.285C1732.42,202.285 1703.07,216.885 1681.53,246.085L1681.53,211.885L1580.67,211.885L1580.67,539.094ZM1808.57,366.685C1808.57,357.085 1806.99,347.985 1803.84,339.385C1800.68,330.785 1796.13,323.285 1790.18,316.885C1784.24,310.485 1777.27,305.385 1769.29,301.585C1761.3,297.785 1752.66,295.885 1743.38,295.885C1734.46,295.885 1726.1,297.685 1718.3,301.285C1710.5,304.885 1703.72,309.885 1697.96,316.285C1692.2,322.685 1687.56,330.185 1684.03,338.785C1680.5,347.385 1678.74,356.485 1678.74,366.085C1678.74,375.685 1680.41,384.685 1683.75,393.085C1687.1,401.485 1691.74,408.785 1697.68,414.985C1703.63,421.185 1710.59,426.185 1718.58,429.985C1726.57,433.785 1735.02,435.685 1743.93,435.685C1752.85,435.685 1761.21,433.885 1769.01,430.285C1776.81,426.685 1783.59,421.685 1789.35,415.285C1795.11,408.885 1799.75,401.485 1803.28,393.085C1806.81,384.685 1808.57,375.885 1808.57,366.685Z" style="fill:rgb(70,78,85);stroke:rgb(70,78,85);stroke-width:2.72px;"/>
        </g>
    </g>
</svg>
