<?xml version="1.0" encoding="UTF-8" standalone="no"?>
<!DOCTYPE svg PUBLIC "-//W3C//DTD SVG 1.1//EN" "http://www.w3.org/Graphics/SVG/1.1/DTD/svg11.dtd">
<svg width="100%" height="100%" viewBox="0 0 39 38" version="1.1">
    <g transform="matrix(1,0,0,1,-1599.67,-470.192)">
        <g transform="matrix(1.01676,0,0,0.987093,-66.4787,62.2829)">
            <circle cx="1657.7" cy="432.297" r="17.703" style="fill:white;"/>
            <path d="M1657.7,413.242C1647.2,413.242 1638.69,421.792 1638.69,432.297C1638.69,442.802 1647.2,451.351 1657.7,451.351C1668.21,451.351 1676.72,442.802 1676.72,432.297C1676.72,421.792 1668.21,413.242 1657.7,413.242ZM1657.7,414.593C1667.47,414.593 1675.41,422.526 1675.41,432.297C1675.41,442.067 1667.47,450 1657.7,450C1647.93,450 1640,442.067 1640,432.297C1640,422.526 1647.93,414.593 1657.7,414.593Z"/>
        </g>
        <g transform="matrix(-0.343533,-0.881465,0.858867,-0.334726,1650.35,1731.48)">
            <path d="M1235.73,438.012C1225.87,461.678 1244.99,459.022 1237.74,477.551" style="fill:none;stroke:black;stroke-width:1.43px;"/>
        </g>
    </g>
</svg>
