<?xml version="1.0" encoding="UTF-8" standalone="no"?>
<!DOCTYPE svg PUBLIC "-//W3C//DTD SVG 1.1//EN" "http://www.w3.org/Graphics/SVG/1.1/DTD/svg11.dtd">
<svg width="100%" height="100%" viewBox="0 0 1793 633" version="1.1" xmlns="http://www.w3.org/2000/svg" xmlns:xlink="http://www.w3.org/1999/xlink" xml:space="preserve" xmlns:serif="http://www.serif.com/" style="fill-rule:evenodd;clip-rule:evenodd;stroke-linejoin:round;stroke-miterlimit:2;">
    <g transform="matrix(1,0,0,1,-116.681,-41.872)">
        <rect id="Artboard1" x="0" y="0" width="2048" height="1536" style="fill:none;"/>
        <g id="Artboard11" serif:id="Artboard1">
            <g transform="matrix(1,0,0,1,91.726,-351.645)">
                <g transform="matrix(17.283,0,0,17.2032,-20277,-5482.64)">
                    <path d="M1209.28,352.152C1212.1,345.879 1218.65,341.939 1225.97,341.939C1230.58,341.939 1234.79,343.674 1237.98,346.526C1240.22,348.532 1241.96,351.09 1242.98,353.987" style="fill:none;fill-rule:nonzero;stroke:rgb(251,251,251);stroke-width:0.7px;"/>
                </g>
                <g transform="matrix(17.283,0,0,17.2032,-20277,-5482.64)">
                    <path d="M1242.99,353.974C1243.45,352.664 1244.05,351.437 1244.78,350.285C1247.99,345.259 1253.61,341.923 1260,341.923C1269.95,341.923 1278.03,350.003 1278.03,359.954C1278.03,369.905 1269.95,377.984 1260,377.984C1252.47,377.984 1246.01,373.355 1243.32,366.789C1243.2,366.508 1243.09,366.224 1242.99,365.936" style="fill:none;fill-rule:nonzero;stroke:rgb(251,251,251);stroke-width:0.7px;"/>
                </g>
                <g transform="matrix(17.283,0,0,17.2032,-20277,-5482.64)">
                    <path d="M1242.99,365.936C1242.82,366.413 1242.63,366.88 1242.43,367.338C1241.1,370.29 1239.01,372.821 1236.4,374.676C1233.45,376.769 1229.85,378 1225.97,378C1218.64,378 1212.33,373.62 1209.51,367.338" style="fill:none;fill-rule:nonzero;stroke:rgb(251,251,251);stroke-width:0.7px;"/>
                </g>
                <g transform="matrix(17.283,0,0,17.2032,-20277,-5482.64)">
                    <path d="M1209.49,367.246C1206.67,373.519 1200.38,377.984 1193.06,377.984C1183.11,377.984 1175.03,369.905 1175.03,359.954C1175.03,350.003 1183.11,341.923 1193.06,341.923C1199.63,341.923 1206.05,346.786 1209.2,352.044" style="fill:none;fill-rule:nonzero;stroke:rgb(251,251,251);stroke-width:0.7px;"/>
                </g>
                <g transform="matrix(-5.3667,-16.3333,14.7774,-6.07986,790.723,23682.3)">
                    <path d="M1235.93,437.616C1226.07,461.282 1242.73,458.014 1235.48,476.543" style="fill:none;fill-rule:nonzero;stroke:rgb(251,251,251);stroke-width:0.7px;stroke-linejoin:miter;stroke-miterlimit:4;"/>
                </g>
                <g transform="matrix(-5.3667,-16.3333,14.7774,-6.07986,218.084,23682.3)">
                    <path d="M1235.71,438.001C1225.85,461.667 1244.45,458.28 1237.2,476.809" style="fill:none;fill-rule:nonzero;stroke:rgb(251,251,251);stroke-width:0.7px;stroke-linejoin:miter;stroke-miterlimit:4;"/>
                </g>
                <g transform="matrix(-5.3667,-16.3333,14.7774,-6.07986,1365.97,23659.6)">
                    <path d="M1235.71,438.001C1225.85,461.667 1244.08,458.124 1236.83,476.653" style="fill:none;fill-rule:nonzero;stroke:rgb(251,251,251);stroke-width:0.7px;stroke-linejoin:miter;stroke-miterlimit:4;"/>
                </g>
            </g>
            <g transform="matrix(1,0,0,1,6.55965,-344.267)">
                <g transform="matrix(0.982123,-0.293545,-0.406646,0.480707,313.596,422.225)">
                    <path d="M78.854,651.903L233.576,937.269" style="fill:none;stroke:rgb(231,231,231);stroke-width:7.01px;stroke-linecap:round;stroke-miterlimit:1.5;"/>
                </g>
                <g transform="matrix(1.0121,-0.216944,-0.300531,0.751829,253.772,157.261)">
                    <path d="M78.854,651.903L233.34,936.832" style="fill:none;stroke:rgb(231,231,231);stroke-width:4.77px;stroke-linecap:round;stroke-miterlimit:1.5;"/>
                </g>
                <g transform="matrix(1.03102,-0.168619,-0.233586,0.922874,232.883,-8.22487)">
                    <path d="M78.854,651.903L231.663,933.739" style="fill:none;stroke:rgb(231,231,231);stroke-width:3.87px;stroke-linecap:round;stroke-miterlimit:1.5;"/>
                </g>
                <g transform="matrix(0.653672,-0.0884301,-0.122501,0.640482,218.377,129.364)">
                    <path d="M78.854,651.903L318.437,1093.78" style="fill:none;stroke:rgb(231,231,231);stroke-width:5.54px;stroke-linecap:round;stroke-miterlimit:1.5;"/>
                </g>
                <g transform="matrix(0.639168,-0.0642862,-0.0890551,0.692754,226.034,53.6204)">
                    <path d="M78.854,651.903L318.437,1093.78" style="fill:none;stroke:rgb(231,231,231);stroke-width:5.08px;stroke-linecap:round;stroke-miterlimit:1.5;"/>
                </g>
                <g transform="matrix(0.62222,-0.04825,-0.0668403,0.71734,243.29,1.88914)">
                    <path d="M78.854,651.903L318.437,1093.78" style="fill:none;stroke:rgb(231,231,231);stroke-width:4.88px;stroke-linecap:round;stroke-miterlimit:1.5;"/>
                </g>
                <g transform="matrix(0.580755,-0.0326805,-0.045272,0.706564,267.554,-14.8642)">
                    <path d="M78.854,651.903L318.437,1093.78" style="fill:none;stroke:rgb(231,231,231);stroke-width:4.93px;stroke-linecap:round;stroke-miterlimit:1.5;"/>
                </g>
                <g transform="matrix(0.531387,-0.0201685,-0.0279392,0.675677,295.983,-16.2697)">
                    <path d="M78.854,651.903L318.437,1093.78" style="fill:none;stroke:rgb(231,231,231);stroke-width:5.13px;stroke-linecap:round;stroke-miterlimit:1.5;"/>
                </g>
                <g transform="matrix(0.473089,-0.021595,-0.0299154,0.590641,342.674,31.4203)">
                    <path d="M78.854,651.903L318.437,1093.78" style="fill:none;stroke:rgb(231,231,231);stroke-width:5.88px;stroke-linecap:round;stroke-miterlimit:1.5;"/>
                </g>
                <g transform="matrix(0.409515,-0.0255183,-0.0353503,0.490813,397.117,101.936)">
                    <path d="M78.854,651.903L318.437,1093.78" style="fill:none;stroke:rgb(231,231,231);stroke-width:7.11px;stroke-linecap:round;stroke-miterlimit:1.5;"/>
                </g>
                <g transform="matrix(0.356016,-0.0264311,-0.0366148,0.413966,446.002,152.006)">
                    <path d="M78.854,651.903L318.437,1093.78" style="fill:none;stroke:rgb(231,231,231);stroke-width:8.45px;stroke-linecap:round;stroke-miterlimit:1.5;"/>
                </g>
                <g transform="matrix(0.31736,-0.0379241,-0.0525359,0.325969,510.127,227.695)">
                    <path d="M78.854,651.903L318.437,1093.78" style="fill:none;stroke:rgb(231,231,231);stroke-width:10.84px;stroke-linecap:round;stroke-miterlimit:1.5;"/>
                </g>
                <g transform="matrix(0.286788,-0.0480115,-0.0665099,0.253384,571.907,292.109)">
                    <path d="M78.854,651.903L318.437,1093.78" style="fill:none;stroke:rgb(231,231,231);stroke-width:14.09px;stroke-linecap:round;stroke-miterlimit:1.5;"/>
                </g>
                <g transform="matrix(0.263486,-0.0622815,-0.086278,0.178333,640.653,368.07)">
                    <path d="M78.854,651.903L318.437,1093.78" style="fill:none;stroke:rgb(231,231,231);stroke-width:20.03px;stroke-linecap:round;stroke-miterlimit:1.5;"/>
                </g>
                <g transform="matrix(0.249544,-0.0832604,-0.11534,0.0961413,719.394,471.379)">
                    <path d="M78.854,651.903L318.437,1093.78" style="fill:none;stroke:rgb(231,231,231);stroke-width:31.47px;stroke-linecap:round;stroke-miterlimit:1.5;"/>
                </g>
                <g transform="matrix(0.3727,-0.0559597,-0.0775205,0.348575,855.346,617.489)">
                    <path d="M78.854,651.903L318.437,1093.78" style="fill:none;stroke:rgb(231,231,231);stroke-width:5.44px;stroke-linecap:round;stroke-miterlimit:1.5;"/>
                </g>
                <g transform="matrix(0.364565,-0.0767452,-0.106315,0.275007,835.596,669.229)">
                    <path d="M78.854,651.903L318.437,1093.78" style="fill:none;stroke:rgb(231,231,231);stroke-width:6.95px;stroke-linecap:round;stroke-miterlimit:1.5;"/>
                </g>
                <g transform="matrix(0.358115,-0.0932255,-0.129145,0.216676,810.364,706.96)">
                    <path d="M78.854,651.903L318.437,1093.78" style="fill:none;stroke:rgb(231,231,231);stroke-width:8.7px;stroke-linecap:round;stroke-miterlimit:1.5;"/>
                </g>
                <g transform="matrix(0.98707,-0.280905,-0.389135,0.525446,1050.61,511.448)">
                    <path d="M78.854,651.903L318.437,1093.78" style="fill:none;stroke:rgb(231,231,231);stroke-width:3.5px;stroke-linecap:round;stroke-miterlimit:1.5;"/>
                </g>
                <g transform="matrix(0.991797,-0.268829,-0.372407,0.568187,1077.27,467.451)">
                    <path d="M78.854,651.903L318.437,1093.78" style="fill:none;stroke:rgb(231,231,231);stroke-width:3.29px;stroke-linecap:round;stroke-miterlimit:1.5;"/>
                </g>
                <g transform="matrix(0.993208,-0.265224,-0.367412,0.580949,1112.32,444.894)">
                    <path d="M78.854,651.903L318.437,1093.78" style="fill:none;stroke:rgb(231,231,231);stroke-width:3.23px;stroke-linecap:round;stroke-miterlimit:1.5;"/>
                </g>
                <g transform="matrix(0.996074,-0.257901,-0.357269,0.606865,1142.11,408.905)">
                    <path d="M78.854,651.903L318.437,1093.78" style="fill:none;stroke:rgb(231,231,231);stroke-width:3.11px;stroke-linecap:round;stroke-miterlimit:1.5;"/>
                </g>
                <g transform="matrix(0.999135,-0.25008,-0.346434,0.634547,1168.14,363.28)">
                    <path d="M78.854,651.903L318.437,1093.78" style="fill:none;stroke:rgb(231,231,231);stroke-width:2.99px;stroke-linecap:round;stroke-miterlimit:1.5;"/>
                </g>
                <g transform="matrix(1.00217,-0.242326,-0.335693,0.661992,1192.38,313.113)">
                    <path d="M78.854,651.903L318.437,1093.78" style="fill:none;stroke:rgb(231,231,231);stroke-width:2.87px;stroke-linecap:round;stroke-miterlimit:1.5;"/>
                </g>
                <g transform="matrix(1.00655,-0.231144,-0.320202,0.701571,1209.83,245.576)">
                    <path d="M78.854,651.903L318.437,1093.78" style="fill:none;stroke:rgb(231,231,231);stroke-width:2.72px;stroke-linecap:round;stroke-miterlimit:1.5;"/>
                </g>
                <g transform="matrix(1.00623,-0.231939,-0.321304,0.698756,1243.38,219.189)">
                    <path d="M78.854,651.903L318.437,1093.78" style="fill:none;stroke:rgb(231,231,231);stroke-width:2.73px;stroke-linecap:round;stroke-miterlimit:1.5;"/>
                </g>
                <g transform="matrix(1.00017,-0.247428,-0.34276,0.643934,1296.32,242.325)">
                    <path d="M78.854,651.903L318.437,1093.78" style="fill:none;stroke:rgb(231,231,231);stroke-width:2.95px;stroke-linecap:round;stroke-miterlimit:1.5;"/>
                </g>
                <g transform="matrix(0.99311,-0.265473,-0.367758,0.580066,1352.5,273.763)">
                    <path d="M78.854,651.903L318.437,1093.78" style="fill:none;stroke:rgb(231,231,231);stroke-width:3.23px;stroke-linecap:round;stroke-miterlimit:1.5;"/>
                </g>
                <g transform="matrix(0.984759,-0.286811,-0.397317,0.504542,1416.52,325.212)">
                    <path d="M78.854,651.903L318.437,1093.78" style="fill:none;stroke:rgb(231,231,231);stroke-width:3.61px;stroke-linecap:round;stroke-miterlimit:1.5;"/>
                </g>
                <g transform="matrix(0.984408,-0.287707,-0.398558,0.501373,1460.43,325.276)">
                    <path d="M78.854,651.903L318.437,1093.78" style="fill:none;stroke:rgb(231,231,231);stroke-width:3.63px;stroke-linecap:round;stroke-miterlimit:1.5;"/>
                </g>
                <g transform="matrix(0.992935,-0.265919,-0.368376,0.578486,1470.45,238.781)">
                    <path d="M78.854,651.903L318.437,1093.78" style="fill:none;stroke:rgb(231,231,231);stroke-width:3.24px;stroke-linecap:round;stroke-miterlimit:1.5;"/>
                </g>
                <g transform="matrix(1.0023,-0.241998,-0.335238,0.663155,1473.95,135.612)">
                    <path d="M78.854,651.903L318.437,1093.78" style="fill:none;stroke:rgb(231,231,231);stroke-width:2.87px;stroke-linecap:round;stroke-miterlimit:1.5;"/>
                </g>
                <g transform="matrix(1.01126,-0.219105,-0.303524,0.744183,1478.06,33.9756)">
                    <path d="M78.854,651.903L318.437,1093.78" style="fill:none;stroke:rgb(231,231,231);stroke-width:2.57px;stroke-linecap:round;stroke-miterlimit:1.5;"/>
                </g>
                <g transform="matrix(1.01108,-0.219557,-0.30415,0.742582,1512.1,8.84304)">
                    <path d="M78.854,651.903L318.437,1093.78" style="fill:none;stroke:rgb(231,231,231);stroke-width:2.57px;stroke-linecap:round;stroke-miterlimit:1.5;"/>
                </g>
                <g transform="matrix(1.01016,-0.221915,-0.307417,0.734236,1552.18,-0.875108)">
                    <path d="M78.854,651.903L318.437,1093.78" style="fill:none;stroke:rgb(231,231,231);stroke-width:2.6px;stroke-linecap:round;stroke-miterlimit:1.5;"/>
                </g>
                <g transform="matrix(1.00633,-0.231693,-0.320962,0.699628,1599.06,6.80413)">
                    <path d="M78.854,651.903L318.437,1093.78" style="fill:none;stroke:rgb(231,231,231);stroke-width:2.73px;stroke-linecap:round;stroke-miterlimit:1.5;"/>
                </g>
                <g transform="matrix(1.00135,-0.244414,-0.338584,0.654604,1649.97,24.7465)">
                    <path d="M78.854,651.903L318.437,1093.78" style="fill:none;stroke:rgb(231,231,231);stroke-width:2.9px;stroke-linecap:round;stroke-miterlimit:1.5;"/>
                </g>
                <g transform="matrix(0.993253,-0.265108,-0.367252,0.581357,1711.64,70.1979)">
                    <path d="M78.854,651.903L318.437,1093.78" style="fill:none;stroke:rgb(231,231,231);stroke-width:3.23px;stroke-linecap:round;stroke-miterlimit:1.5;"/>
                </g>
                <g transform="matrix(0.984484,-0.287514,-0.398291,0.502055,1777.84,127.232)">
                    <path d="M78.854,651.903L318.437,1093.78" style="fill:none;stroke:rgb(231,231,231);stroke-width:3.62px;stroke-linecap:round;stroke-miterlimit:1.5;"/>
                </g>
                <g transform="matrix(0.980256,-0.298315,-0.413254,0.463824,1831.83,153.063)">
                    <path d="M78.854,651.903L318.437,1093.78" style="fill:none;stroke:rgb(231,231,231);stroke-width:3.83px;stroke-linecap:round;stroke-miterlimit:1.5;"/>
                </g>
                <g transform="matrix(0.972745,-0.317505,-0.439837,0.395904,1895.56,203.778)">
                    <path d="M78.854,651.903L318.437,1093.78" style="fill:none;stroke:rgb(231,231,231);stroke-width:4.2px;stroke-linecap:round;stroke-miterlimit:1.5;"/>
                </g>
                <g transform="matrix(0.969059,-0.326923,-0.452884,0.362569,1954.38,241.942)">
                    <path d="M78.854,651.903L318.437,1093.78" style="fill:none;stroke:rgb(231,231,231);stroke-width:4.37px;stroke-linecap:round;stroke-miterlimit:1.5;"/>
                </g>
                <g transform="matrix(0.960775,-0.348088,-0.482204,0.287657,2030.62,324.617)">
                    <path d="M78.854,651.903L318.437,1093.78" style="fill:none;stroke:rgb(231,231,231);stroke-width:4.69px;stroke-linecap:round;stroke-miterlimit:1.5;"/>
                </g>
            </g>
        </g>
    </g>
</svg>
