<?xml version="1.0" encoding="UTF-8" standalone="no"?>
<!DOCTYPE svg PUBLIC "-//W3C//DTD SVG 1.1//EN" "http://www.w3.org/Graphics/SVG/1.1/DTD/svg11.dtd">
<svg width="100%" height="100%" viewBox="0 0 1786 627" version="1.1" xmlns="http://www.w3.org/2000/svg" xmlns:xlink="http://www.w3.org/1999/xlink" xml:space="preserve" xmlns:serif="http://www.serif.com/" style="fill-rule:evenodd;clip-rule:evenodd;stroke-linejoin:round;stroke-miterlimit:2;">
    <g transform="matrix(1,0,0,1,-113.321,-389.339)">
        <g transform="matrix(1,0,0,1,85.1664,-7.37744)">
            <g transform="matrix(17.283,0,0,17.2032,-20277,-5482.64)">
                <path d="M1209.28,352.152C1212.1,345.879 1218.65,341.939 1225.97,341.939C1230.58,341.939 1234.79,343.674 1237.98,346.526C1240.22,348.532 1241.96,351.09 1242.98,353.987" style="fill:none;fill-rule:nonzero;stroke:white;stroke-width:0.32px;"/>
            </g>
            <g transform="matrix(17.283,0,0,17.2032,-20277,-5482.64)">
                <path d="M1242.99,353.974C1243.45,352.664 1244.05,351.437 1244.78,350.285C1247.99,345.259 1253.61,341.923 1260,341.923C1269.95,341.923 1278.03,350.003 1278.03,359.954C1278.03,369.905 1269.95,377.984 1260,377.984C1252.47,377.984 1246.01,373.355 1243.32,366.789C1243.2,366.508 1243.09,366.224 1242.99,365.936" style="fill:none;fill-rule:nonzero;stroke:white;stroke-width:0.32px;"/>
            </g>
            <g transform="matrix(17.283,0,0,17.2032,-20277,-5482.64)">
                <path d="M1242.99,365.936C1242.82,366.413 1242.63,366.88 1242.43,367.338C1241.1,370.29 1239.01,372.821 1236.4,374.676C1233.45,376.769 1229.85,378 1225.97,378C1218.64,378 1212.33,373.62 1209.51,367.338" style="fill:none;fill-rule:nonzero;stroke:white;stroke-width:0.32px;"/>
            </g>
            <g transform="matrix(17.283,0,0,17.2032,-20277,-5482.64)">
                <path d="M1209.49,367.246C1206.67,373.519 1200.38,377.984 1193.06,377.984C1183.11,377.984 1175.03,369.905 1175.03,359.954C1175.03,350.003 1183.11,341.923 1193.06,341.923C1199.63,341.923 1206.05,346.786 1209.2,352.044" style="fill:none;fill-rule:nonzero;stroke:white;stroke-width:0.32px;"/>
            </g>
            <g transform="matrix(-5.3667,-16.3333,14.7774,-6.07986,790.723,23682.3)">
                <path d="M1235.93,437.616C1226.07,461.282 1242.73,458.014 1235.48,476.543" style="fill:none;fill-rule:nonzero;stroke:white;stroke-width:0.32px;stroke-linejoin:miter;stroke-miterlimit:4;"/>
            </g>
            <g transform="matrix(-5.3667,-16.3333,14.7774,-6.07986,218.084,23682.3)">
                <path d="M1235.71,438.001C1225.85,461.667 1244.45,458.28 1237.2,476.809" style="fill:none;fill-rule:nonzero;stroke:white;stroke-width:0.32px;stroke-linejoin:miter;stroke-miterlimit:4;"/>
            </g>
            <g transform="matrix(-5.3667,-16.3333,14.7774,-6.07986,1365.97,23659.6)">
                <path d="M1235.71,438.001C1225.85,461.667 1244.08,458.124 1236.83,476.653" style="fill:none;fill-rule:nonzero;stroke:white;stroke-width:0.32px;stroke-linejoin:miter;stroke-miterlimit:4;"/>
            </g>
        </g>
        <path d="M128.313,778.7L187.095,829.494L116.171,696.56L238.641,826.582L124.165,634.677L282.918,817.833L146.146,576.583L336.158,802.933L174.185,523.211L387.022,776.263L210.168,480.664L426.54,738.519L253.017,445.369L457.782,705.143L312.946,415.025L486.379,667.889L370.795,399.163L514.634,633.737L423.774,394.235L541.367,611.428L476.302,397.576L569.236,591.722L530.717,415.854L598.444,582.836L584.327,445.369L628.991,571.125L628.991,480.664L650.167,571.125L659.958,507.905L676.27,565.065L688.966,540.157" style="fill:none;stroke:white;stroke-width:5.6px;stroke-linecap:round;stroke-miterlimit:1.5;"/>
        <path d="M739.3,826.344L752.335,893.534L769.605,826.344L827.454,957.559L821.653,824.628L887.508,988.742L866.494,818.201L966.275,1008.49L923.562,801.742L1045.92,1008.66L979.257,770.708L1116.01,986.036L1023.56,733.363L1182.06,951.389L1065.31,687.546L1233.62,902.947L1108.14,648.689L1267.04,852.775L1146.63,623.052L1290.65,809.873L1188.72,612.489L1361.62,804.322L1244.24,600.477L1426.74,797.906L1300,582.889L1483.14,781.329L1336.28,524.063L1538.29,751.59L1363.92,487.331L1576.11,716.28L1412,448.863L1607.87,680.301L1471.97,417.679L1637.8,636.928L1548.22,398.092L1676.18,603.089L1615.45,396.539L1713.16,577.594L1669.64,406.123L1766.06,557.28L1741.56,435.447L1815.82,551.695L1799.39,481.296" style="fill:none;stroke:white;stroke-width:5.6px;stroke-linecap:round;stroke-miterlimit:1.5;"/>
    </g>
</svg>
