<?xml version="1.0" encoding="UTF-8" standalone="no"?>
<!DOCTYPE svg PUBLIC "-//W3C//DTD SVG 1.1//EN" "http://www.w3.org/Graphics/SVG/1.1/DTD/svg11.dtd">
<svg width="100%" height="100%" viewBox="0 0 639 236" version="1.1" xmlns="http://www.w3.org/2000/svg" xmlns:xlink="http://www.w3.org/1999/xlink" xml:space="preserve" xmlns:serif="http://www.serif.com/" style="fill-rule:evenodd;clip-rule:evenodd;stroke-linecap:round;stroke-linejoin:round;stroke-miterlimit:1.5;">
    <g transform="matrix(1,0,0,1,-716.315,-528.776)">
        <g transform="matrix(1,0,0,1,-719.214,-193.474)">
            <path d="M1484.37,736.204C1481.74,727.66 1486.53,718.217 1480.97,725.151C1456.67,755.436 1425.21,899.957 1439.7,912.611C1468.82,938.046 1499.97,845.708 1502.46,838.337C1501.46,846.387 1490.23,936.793 1508.2,939.579C1569.45,949.079 1609.16,708.29 1537.56,750.793" style="fill:none;stroke:black;stroke-width:1px;"/>
        </g>
        <g transform="matrix(1,0,0,1,-719.214,-193.474)">
            <path d="M1564.15,867.291C1568.85,868.832 1571.36,874.593 1576.06,876.133C1588.61,880.246 1629.09,822.54 1609.04,819.761C1563.75,813.486 1523.95,1006.68 1627.97,904.653C1710.42,823.791 1683.81,720.001 1643.29,775.775C1624.57,801.554 1597.75,869.932 1592.87,895.586C1583.73,943.649 1608.36,934.737 1618.61,935.825" style="fill:none;stroke:black;stroke-width:1px;"/>
        </g>
        <g transform="matrix(1,0,0,1,-719.214,-193.474)">
            <path d="M1717.33,844.084C1680.98,797.709 1633.76,902.85 1644.35,927.425C1661.76,967.803 1733.91,870.516 1735.19,869.502" style="fill:none;stroke:black;stroke-width:1px;"/>
        </g>
        <g transform="matrix(1,0,0,1,-719.214,-193.474)">
            <path d="M1783.28,858.674C1722.97,830.039 1704.45,920.483 1705.2,923.221C1711.37,945.666 1767.81,914.9 1772.64,853.368" style="fill:none;stroke:black;stroke-width:1px;"/>
        </g>
        <g transform="matrix(1,0,0,1,-719.214,-193.474)">
            <path d="M1789.02,840.105C1793.41,888.702 1793.74,889.655 1770.93,936.709C1773.79,930.169 1807.27,853.569 1824.12,865.081C1826.6,866.773 1832.49,875.399 1832.84,883.207C1833.82,904.972 1822.51,916.927 1822.2,917.916C1829.1,899.706 1838.48,854.875 1863.69,856.681C1871.78,857.26 1899,861.156 1854.76,957.705C1858.44,948.421 1862.13,939.137 1865.82,929.853" style="fill:none;stroke:black;stroke-width:1px;"/>
        </g>
        <g transform="matrix(1,0,0,1,-719.214,-193.474)">
            <path d="M1911.77,873.705C1921.85,884.856 1919.67,890.368 1933.26,888.07C1957.18,884.023 2002.64,838.574 1977.72,831.039C1925.78,815.336 1885.36,907.393 1906.67,930.519C1952.65,980.429 2063.46,856.988 2073.45,845.853" style="fill:none;stroke:black;stroke-width:1px;"/>
        </g>
    </g>
</svg>
