<?xml version="1.0" encoding="UTF-8" standalone="no"?>
<!DOCTYPE svg PUBLIC "-//W3C//DTD SVG 1.1//EN" "http://www.w3.org/Graphics/SVG/1.1/DTD/svg11.dtd">
<svg width="100%" height="100%" viewBox="-5 0 407 90" version="1.1" xmlns="http://www.w3.org/2000/svg" xmlns:xlink="http://www.w3.org/1999/xlink" xml:space="preserve" xmlns:serif="http://www.serif.com/" style="fill-rule:evenodd;clip-rule:evenodd;stroke-linecap:round;stroke-linejoin:round;stroke-miterlimit:1.5;">
    <g transform="matrix(1,0,0,1,-377.945,-1278.53)">
        <g transform="matrix(0.764704,0,0,0.647466,198.642,479.659)">
            <path d="M248.954,1245.06C240.254,1256.13 217.147,1364.79 261.395,1367.75C295.441,1370.03 295.002,1326.42 295.796,1319.56C298.614,1388.66 361.329,1379.78 360.645,1319.56C360.141,1275.11 342.594,1245.06 342.594,1245.06" style="fill:none;"/>
        </g>
        <g transform="matrix(0.764704,0,0,0.443944,185.466,752.426)">
            <path d="M403.915,1321.97C469.734,1303.11 433.972,1268.15 415.714,1270.25C375.528,1274.86 373.835,1331.86 383.074,1357.36C401.415,1407.99 441.863,1352.09 444.996,1346.49" style="fill:none"/>
        </g>
        <g transform="matrix(0.764704,0,0,0.686181,190.054,427.457)">
            <path d="M451.151,1302.54C493.016,1286.73 467.946,1215.6 451.579,1250.59C421.668,1314.53 445.456,1400.11 504.975,1350.06" style="fill:none;"/>
        </g>
        <g transform="matrix(0.764704,0,0,0.647466,186.995,480.306)">
            <path d="M550.505,1287.73C548.61,1286.73 541.289,1276.67 531.144,1277.56C481.535,1281.89 497.49,1417.11 570.728,1346.08" style="fill:none;"/>
        </g>
        <g transform="matrix(0.71143,0.280426,-0.237433,0.60236,544.662,367.56)">
            <path d="M596.884,1305.41C536.696,1296.85 553.598,1409.26 605.113,1371.25C631.556,1351.74 616.537,1308.21 596.884,1305.41Z" style="fill:none;"/>
        </g>
        <g transform="matrix(0.764704,0,0,0.647466,182.407,485.134)">
            <path d="M636.494,1298.34C643.209,1331.73 642.709,1342.68 643.688,1355.64C643.568,1350.96 639.212,1298.28 654.072,1298.34C667.576,1298.39 670.835,1325.12 672.167,1337.95C673.399,1325.21 673.831,1298.46 686.373,1298.34C704.693,1298.15 704.568,1352.69 705.427,1357.44" style="fill:none;"/>
        </g>
        <g transform="matrix(0.724087,0,0,0.488652,219.012,690.097)">
            <path d="M725.385,1337.26C743.379,1339.81 770.593,1327.44 757.937,1304.72C726.82,1248.84 665.059,1329.26 712.266,1373.19C734.317,1393.72 769.613,1366.15 772.849,1359.79" style="fill:none;"/>
        </g>
    </g>
</svg>
